<svg width="600" height="600" viewBox="0 0 600 600" fill="none" xmlns="http://www.w3.org/2000/svg">
<rect width="600" height="600" fill="transparent"/>
<g filter="url(#filter0_d_0_1)">
<rect x="50" y="50" width="500" height="500" rx="30" fill="#FFFFFF"/>
<rect x="50.5" y="50.5" width="499" height="499" rx="29.5" stroke="#E2E8F0"/>
</g>
<circle cx="300" cy="150" r="50" fill="#4F46E5"/>
<path d="M320 140L290 170L280 160" stroke="#FFFFFF" stroke-width="4" stroke-linecap="round" stroke-linejoin="round"/>
<path d="M300 120V180" stroke="#FFFFFF" stroke-width="4" stroke-linecap="round" stroke-linejoin="round"/>
<path d="M280 140L320 160" stroke="#FFFFFF" stroke-width="4" stroke-linecap="round" stroke-linejoin="round"/>
<circle cx="300" cy="150" r="48" stroke="white" stroke-width="4" stroke-linecap="round" stroke-linejoin="round"/>


<rect x="100" y="250" width="400" height="40" rx="10" fill="#E2E8F0"/>
<rect x="100" y="310" width="300" height="40" rx="10" fill="#E2E8F0"/>
<rect x="100" y="370" width="450" height="40" rx="10" fill="#E2E8F0"/>
<rect x="100" y="430" width="350" height="40" rx="10" fill="#E2E8F0"/>

<rect x="115" y="260" width="20" height="20" rx="5" fill="#22C55E"/>
<text x="145" y="275" font-family="system-ui, sans-serif" font-size="16" fill="#334155">تاییدیه رسمی دولتی</text>
<rect x="115" y="320" width="20" height="20" rx="5" fill="#3B82F6"/>
<text x="145" y="335" font-family="system-ui, sans-serif" font-size="16" fill="#334155">استانداردهای آموزشی ملی</text>
<rect x="115" y="380" width="20" height="20" rx="5" fill="#8B5CF6"/>
<text x="145" y="395" font-family="system-ui, sans-serif" font-size="16" fill="#334155">ارزیابی مستقل و معتبر</text>
<rect x="115" y="440" width="20" height="20" rx="5" fill="#F97316"/>
<text x="145" y="455" font-family="system-ui, sans-serif" font-size="16" fill="#334155">قابلیت استعلام و پیگیری</text>

<g filter="url(#filter1_d_0_1)">
<rect x="250" y="200" width="100" height="100" rx="15" fill="#6366F1"/>
<rect x="250.5" y="200.5" width="99" height="99" rx="14.5" stroke="#4F46E5" stroke-opacity="0.5"/>
</g>
<path d="M312.5 225H287.5C284.186 225 281.5 227.686 281.5 231V269C281.5 272.314 284.186 275 287.5 275H312.5C315.814 275 318.5 272.314 318.5 269V231C318.5 227.686 315.814 225 312.5 225Z" stroke="#FFFFFF" stroke-width="2" stroke-linecap="round" stroke-linejoin="round"/>
<path d="M290 225V219C290 216.791 291.791 215 294 215H306C308.209 215 310 216.791 310 219V225" stroke="#FFFFFF" stroke-width="2" stroke-linecap="round" stroke-linejoin="round"/>
<path d="M285 245H315" stroke="#FFFFFF" stroke-width="2" stroke-linecap="round" stroke-linejoin="round"/>
<path d="M285 255H315" stroke="#FFFFFF" stroke-width="2" stroke-linecap="round" stroke-linejoin="round"/>
<path d="M285 265H315" stroke="#FFFFFF" stroke-width="2" stroke-linecap="round" stroke-linejoin="round"/>

<defs>
<filter id="filter0_d_0_1" x="40" y="40" width="520" height="520" filterUnits="userSpaceOnUse" color-interpolation-filters="sRGB">
<feFlood flood-opacity="0" result="BackgroundImageFix"/>
<feColorMatrix in="SourceAlpha" type="matrix" values="0 0 0 0 0 0 0 0 0 0 0 0 0 0 0 0 0 0 127 0" result="hardAlpha"/>
<feOffset dy="4"/>
<feGaussianBlur stdDeviation="5"/>
<feComposite in2="hardAlpha" operator="out"/>
<feColorMatrix type="matrix" values="0 0 0 0 0 0 0 0 0 0 0 0 0 0 0 0 0 0 0.1 0"/>
<feBlend mode="normal" in2="BackgroundImageFix" result="effect1_dropShadow_0_1"/>
<feBlend mode="normal" in="SourceGraphic" in2="effect1_dropShadow_0_1" result="shape"/>
</filter>
<filter id="filter1_d_0_1" x="240" y="194" width="120" height="120" filterUnits="userSpaceOnUse" color-interpolation-filters="sRGB">
<feFlood flood-opacity="0" result="BackgroundImageFix"/>
<feColorMatrix in="SourceAlpha" type="matrix" values="0 0 0 0 0 0 0 0 0 0 0 0 0 0 0 0 0 0 127 0" result="hardAlpha"/>
<feOffset dy="4"/>
<feGaussianBlur stdDeviation="5"/>
<feComposite in2="hardAlpha" operator="out"/>
<feColorMatrix type="matrix" values="0 0 0 0 0.282353 0 0 0 0 0.27451 0 0 0 0 0.819608 0 0 0 0.25 0"/>
<feBlend mode="normal" in2="BackgroundImageFix" result="effect1_dropShadow_0_1"/>
<feBlend mode="normal" in="SourceGraphic" in2="effect1_dropShadow_0_1" result="shape"/>
</filter>
</defs>
</svg>