<svg id="visual" viewBox="0 0 900 600" width="900" height="600" xmlns="http://www.w3.org/2000/svg" xmlns:xlink="http://www.w3.org/1999/xlink" version="1.1"><rect x="0" y="0" width="900" height="600" fill="#001220"></rect><defs><linearGradient id="grad1_0" x1="33.3%" y1="100%" x2="100%" y2="0%"><stop offset="20%" stop-color="#ff6f61" stop-opacity="1"></stop><stop offset="80%" stop-color="#ff6f61" stop-opacity="1"></stop></linearGradient></defs><defs><linearGradient id="grad1_1" x1="33.3%" y1="100%" x2="100%" y2="0%"><stop offset="20%" stop-color="#ff6f61" stop-opacity="1"></stop><stop offset="80%" stop-color="#e05870" stop-opacity="1"></stop></linearGradient></defs><defs><linearGradient id="grad1_2" x1="33.3%" y1="100%" x2="100%" y2="0%"><stop offset="20%" stop-color="#b84a78" stop-opacity="1"></stop><stop offset="80%" stop-color="#e05870" stop-opacity="1"></stop></linearGradient></defs><defs><linearGradient id="grad1_3" x1="33.3%" y1="100%" x2="100%" y2="0%"><stop offset="20%" stop-color="#b84a78" stop-opacity="1"></stop><stop offset="80%" stop-color="#8b4176" stop-opacity="1"></stop></linearGradient></defs><defs><linearGradient id="grad1_4" x1="33.3%" y1="100%" x2="100%" y2="0%"><stop offset="20%" stop-color="#5e396b" stop-opacity="1"></stop><stop offset="80%" stop-color="#8b4176" stop-opacity="1"></stop></linearGradient></defs><defs><linearGradient id="grad1_5" x1="33.3%" y1="100%" x2="100%" y2="0%"><stop offset="20%" stop-color="#5e396b" stop-opacity="1"></stop><stop offset="80%" stop-color="#352f57" stop-opacity="1"></stop></linearGradient></defs><defs><linearGradient id="grad1_6" x1="33.3%" y1="100%" x2="100%" y2="0%"><stop offset="20%" stop-color="#14223c" stop-opacity="1"></stop><stop offset="80%" stop-color="#352f57" stop-opacity="1"></stop></linearGradient></defs><defs><linearGradient id="grad1_7" x1="33.3%" y1="100%" x2="100%" y2="0%"><stop offset="20%" stop-color="#14223c" stop-opacity="1"></stop><stop offset="80%" stop-color="#001220" stop-opacity="1"></stop></linearGradient></defs><defs><linearGradient id="grad2_0" x1="0%" y1="100%" x2="66.7%" y2="0%"><stop offset="20%" stop-color="#ff6f61" stop-opacity="1"></stop><stop offset="80%" stop-color="#ff6f61" stop-opacity="1"></stop></linearGradient></defs><defs><linearGradient id="grad2_1" x1="0%" y1="100%" x2="66.7%" y2="0%"><stop offset="20%" stop-color="#e05870" stop-opacity="1"></stop><stop offset="80%" stop-color="#ff6f61" stop-opacity="1"></stop></linearGradient></defs><defs><linearGradient id="grad2_2" x1="0%" y1="100%" x2="66.7%" y2="0%"><stop offset="20%" stop-color="#e05870" stop-opacity="1"></stop><stop offset="80%" stop-color="#b84a78" stop-opacity="1"></stop></linearGradient></defs><defs><linearGradient id="grad2_3" x1="0%" y1="100%" x2="66.7%" y2="0%"><stop offset="20%" stop-color="#8b4176" stop-opacity="1"></stop><stop offset="80%" stop-color="#b84a78" stop-opacity="1"></stop></linearGradient></defs><defs><linearGradient id="grad2_4" x1="0%" y1="100%" x2="66.7%" y2="0%"><stop offset="20%" stop-color="#8b4176" stop-opacity="1"></stop><stop offset="80%" stop-color="#5e396b" stop-opacity="1"></stop></linearGradient></defs><defs><linearGradient id="grad2_5" x1="0%" y1="100%" x2="66.7%" y2="0%"><stop offset="20%" stop-color="#352f57" stop-opacity="1"></stop><stop offset="80%" stop-color="#5e396b" stop-opacity="1"></stop></linearGradient></defs><defs><linearGradient id="grad2_6" x1="0%" y1="100%" x2="66.7%" y2="0%"><stop offset="20%" stop-color="#352f57" stop-opacity="1"></stop><stop offset="80%" stop-color="#14223c" stop-opacity="1"></stop></linearGradient></defs><defs><linearGradient id="grad2_7" x1="0%" y1="100%" x2="66.7%" y2="0%"><stop offset="20%" stop-color="#001220" stop-opacity="1"></stop><stop offset="80%" stop-color="#14223c" stop-opacity="1"></stop></linearGradient></defs><g transform="translate(900, 600)"><path d="M-540.8 0C-481.4 -14.1 -421.9 -28.2 -431.8 -52.4C-441.8 -76.7 -521.1 -111 -525.1 -129.4C-529.1 -147.8 -457.9 -150.3 -428.2 -162.4C-398.6 -174.6 -410.7 -196.4 -409.1 -214.7C-407.5 -233 -392.2 -247.6 -377.7 -260.7C-363.3 -273.8 -349.6 -285.4 -338.3 -299.7C-327 -314.1 -318 -331.2 -304.4 -343.6C-290.7 -355.9 -272.4 -363.6 -255.1 -369.5C-237.7 -375.5 -221.2 -379.7 -211 -402C-200.7 -424.3 -196.6 -464.6 -180.5 -475.9C-164.4 -487.2 -136.2 -469.6 -113.9 -462.2C-91.7 -454.8 -75.4 -457.7 -57.4 -472.5C-39.4 -487.4 -19.7 -514.1 0 -540.8L0 0Z" fill="#091b2e"></path><path d="M-473.2 0C-421.2 -12.3 -369.2 -24.7 -377.8 -45.9C-386.5 -67.1 -456 -97.2 -459.5 -113.3C-463 -129.3 -400.6 -131.5 -374.7 -142.1C-348.8 -152.7 -359.3 -171.9 -357.9 -187.9C-356.5 -203.8 -343.2 -216.7 -330.5 -228.1C-317.9 -239.6 -305.9 -249.7 -296 -262.3C-286.1 -274.8 -278.3 -289.8 -266.3 -300.6C-254.4 -311.5 -238.4 -318.1 -223.2 -323.3C-208 -328.5 -193.6 -332.2 -184.6 -351.7C-175.6 -371.2 -172.1 -406.5 -157.9 -416.4C-143.8 -426.3 -119.1 -410.9 -99.7 -404.4C-80.2 -397.9 -65.9 -400.5 -50.2 -413.5C-34.5 -426.4 -17.2 -449.8 0 -473.2L0 0Z" fill="#24294a"></path><path d="M-405.6 0C-361 -10.6 -316.4 -21.2 -323.9 -39.3C-331.3 -57.5 -390.8 -83.3 -393.8 -97.1C-396.9 -110.9 -343.4 -112.7 -321.2 -121.8C-299 -130.9 -308 -147.3 -306.8 -161C-305.6 -174.7 -294.2 -185.7 -283.3 -195.6C-272.5 -205.4 -262.2 -214 -253.7 -224.8C-245.3 -235.5 -238.5 -248.4 -228.3 -257.7C-218 -267 -204.3 -272.7 -191.3 -277.1C-178.3 -281.6 -165.9 -284.8 -158.2 -301.5C-150.5 -318.2 -147.5 -348.5 -135.4 -356.9C-123.3 -365.4 -102.1 -352.2 -85.4 -346.6C-68.8 -341.1 -56.5 -343.3 -43 -354.4C-29.5 -365.5 -14.8 -385.6 0 -405.6L0 0Z" fill="#493562"></path><path d="M-338 0C-300.9 -8.8 -263.7 -17.6 -269.9 -32.8C-276.1 -47.9 -325.7 -69.4 -328.2 -80.9C-330.7 -92.4 -286.2 -93.9 -267.6 -101.5C-249.1 -109.1 -256.7 -122.8 -255.7 -134.2C-254.7 -145.6 -245.1 -154.8 -236.1 -163C-227.1 -171.2 -218.5 -178.4 -211.5 -187.3C-204.4 -196.3 -198.8 -207 -190.2 -214.7C-181.7 -222.5 -170.3 -227.2 -159.4 -230.9C-148.6 -234.7 -138.3 -237.3 -131.9 -251.2C-125.5 -265.2 -122.9 -290.4 -112.8 -297.5C-102.7 -304.5 -85.1 -293.5 -71.2 -288.9C-57.3 -284.2 -47.1 -286.1 -35.9 -295.3C-24.6 -304.6 -12.3 -321.3 0 -338L0 0Z" fill="#743e72"></path><path d="M-270.4 0C-240.7 -7.1 -210.9 -14.1 -215.9 -26.2C-220.9 -38.3 -260.5 -55.5 -262.6 -64.7C-264.6 -73.9 -228.9 -75.1 -214.1 -81.2C-199.3 -87.3 -205.3 -98.2 -204.5 -107.4C-203.7 -116.5 -196.1 -123.8 -188.9 -130.4C-181.6 -136.9 -174.8 -142.7 -169.2 -149.9C-163.5 -157 -159 -165.6 -152.2 -171.8C-145.4 -178 -136.2 -181.8 -127.5 -184.8C-118.8 -187.7 -110.6 -189.9 -105.5 -201C-100.4 -212.1 -98.3 -232.3 -90.2 -238C-82.2 -243.6 -68.1 -234.8 -57 -231.1C-45.8 -227.4 -37.7 -228.9 -28.7 -236.3C-19.7 -243.7 -9.8 -257 0 -270.4L0 0Z" fill="#a24579"></path><path d="M-202.8 0C-180.5 -5.3 -158.2 -10.6 -161.9 -19.7C-165.7 -28.7 -195.4 -41.6 -196.9 -48.5C-198.4 -55.4 -171.7 -56.3 -160.6 -60.9C-149.5 -65.5 -154 -73.7 -153.4 -80.5C-152.8 -87.4 -147.1 -92.9 -141.7 -97.8C-136.2 -102.7 -131.1 -107 -126.9 -112.4C-122.6 -117.8 -119.3 -124.2 -114.1 -128.8C-109 -133.5 -102.2 -136.3 -95.6 -138.6C-89.1 -140.8 -83 -142.4 -79.1 -150.7C-75.3 -159.1 -73.7 -174.2 -67.7 -178.5C-61.6 -182.7 -51.1 -176.1 -42.7 -173.3C-34.4 -170.5 -28.3 -171.6 -21.5 -177.2C-14.8 -182.8 -7.4 -192.8 0 -202.8L0 0Z" fill="#cd5075"></path><path d="M-135.2 0C-120.3 -3.5 -105.5 -7.1 -108 -13.1C-110.4 -19.2 -130.3 -27.8 -131.3 -32.4C-132.3 -37 -114.5 -37.6 -107.1 -40.6C-99.7 -43.6 -102.7 -49.1 -102.3 -53.7C-101.9 -58.2 -98.1 -61.9 -94.4 -65.2C-90.8 -68.5 -87.4 -71.3 -84.6 -74.9C-81.8 -78.5 -79.5 -82.8 -76.1 -85.9C-72.7 -89 -68.1 -90.9 -63.8 -92.4C-59.4 -93.9 -55.3 -94.9 -52.7 -100.5C-50.2 -106.1 -49.2 -116.2 -45.1 -119C-41.1 -121.8 -34 -117.4 -28.5 -115.5C-22.9 -113.7 -18.8 -114.4 -14.3 -118.1C-9.8 -121.8 -4.9 -128.5 0 -135.2L0 0Z" fill="#f16269"></path><path d="M-67.6 0C-60.2 -1.8 -52.7 -3.5 -54 -6.6C-55.2 -9.6 -65.1 -13.9 -65.6 -16.2C-66.1 -18.5 -57.2 -18.8 -53.5 -20.3C-49.8 -21.8 -51.3 -24.6 -51.1 -26.8C-50.9 -29.1 -49 -31 -47.2 -32.6C-45.4 -34.2 -43.7 -35.7 -42.3 -37.5C-40.9 -39.3 -39.8 -41.4 -38 -42.9C-36.3 -44.5 -34.1 -45.4 -31.9 -46.2C-29.7 -46.9 -27.7 -47.5 -26.4 -50.2C-25.1 -53 -24.6 -58.1 -22.6 -59.5C-20.5 -60.9 -17 -58.7 -14.2 -57.8C-11.5 -56.8 -9.4 -57.2 -7.2 -59.1C-4.9 -60.9 -2.5 -64.3 0 -67.6L0 0Z" fill="#ff6f61"></path></g><g transform="translate(0, 0)"><path d="M540.8 0C540.9 22.6 541 45.1 529.1 64.2C517.2 83.4 493.4 99 491.3 121.1C489.2 143.2 508.8 171.6 504 191.1C499.2 210.6 470 221.2 455.1 238.9C440.2 256.5 439.6 281.3 418.1 288.6C396.6 295.8 354.1 285.6 339.8 301.1C325.5 316.5 339.3 357.7 324.9 366.8C310.6 375.9 268.2 352.9 251.1 363.8C234 374.6 242.1 419.3 237.5 452.5C232.8 485.6 215.4 507.3 191.8 505.7C168.2 504.1 138.4 479.3 115.1 467C91.8 454.8 75.1 455.1 57 469.6C38.9 484 19.5 512.4 0 540.8L0 0Z" fill="#091b2e"></path><path d="M473.2 0C473.3 19.7 473.4 39.5 463 56.2C452.6 72.9 431.7 86.7 429.9 106C428 125.3 445.2 150.2 441 167.2C436.8 184.3 411.3 193.6 398.2 209C385.2 224.5 384.6 246.1 365.8 252.5C347 258.9 309.9 249.9 297.3 263.4C284.8 277 296.8 313 284.3 320.9C271.8 328.9 234.7 308.8 219.7 318.3C204.7 327.8 211.9 366.9 207.8 395.9C203.7 424.9 188.5 443.9 167.8 442.5C147.1 441.1 121.1 419.4 100.7 408.6C80.4 397.9 65.7 398.3 49.9 410.9C34.1 423.5 17 448.3 0 473.2L0 0Z" fill="#24294a"></path><path d="M405.6 0C405.7 16.9 405.7 33.8 396.8 48.2C387.9 62.5 370.1 74.3 368.5 90.8C366.9 107.4 381.6 128.7 378 143.3C374.4 158 352.5 165.9 341.3 179.2C330.2 192.4 329.7 211 313.6 216.4C297.4 221.9 265.6 214.2 254.9 225.8C244.1 237.4 254.4 268.3 243.7 275.1C233 281.9 201.2 264.7 188.3 272.8C175.5 281 181.6 314.5 178.1 339.4C174.6 364.2 161.5 380.5 143.8 379.3C126.1 378.1 103.8 359.4 86.3 350.3C68.9 341.1 56.3 341.4 42.8 352.2C29.2 363 14.6 384.3 0 405.6L0 0Z" fill="#493562"></path><path d="M338 0C338.1 14.1 338.1 28.2 330.7 40.2C323.3 52.1 308.4 61.9 307.1 75.7C305.7 89.5 318 107.3 315 119.5C312 131.7 293.8 138.3 284.5 149.3C275.1 160.3 274.7 175.8 261.3 180.4C247.8 184.9 221.3 178.5 212.4 188.2C203.4 197.8 212 223.5 203.1 229.2C194.1 234.9 167.6 220.6 156.9 227.3C146.2 234.1 151.3 262.1 148.4 282.8C145.5 303.5 134.6 317.1 119.9 316.1C105.1 315.1 86.5 299.5 71.9 291.9C57.4 284.2 46.9 284.5 35.6 293.5C24.3 302.5 12.2 320.2 0 338L0 0Z" fill="#743e72"></path><path d="M270.4 0C270.5 11.3 270.5 22.6 264.6 32.1C258.6 41.7 246.7 49.5 245.6 60.5C244.6 71.6 254.4 85.8 252 95.6C249.6 105.3 235 110.6 227.6 119.4C220.1 128.3 219.8 140.7 209 144.3C198.3 147.9 177.1 142.8 169.9 150.5C162.7 158.3 169.6 178.8 162.5 183.4C155.3 187.9 134.1 176.4 125.5 181.9C117 187.3 121.1 209.7 118.7 226.2C116.4 242.8 107.7 253.6 95.9 252.8C84.1 252 69.2 239.6 57.6 233.5C45.9 227.4 37.6 227.6 28.5 234.8C19.5 242 9.7 256.2 0 270.4L0 0Z" fill="#a24579"></path><path d="M202.8 0C202.8 8.5 202.9 16.9 198.4 24.1C194 31.3 185 37.1 184.2 45.4C183.4 53.7 190.8 64.4 189 71.7C187.2 79 176.3 83 170.7 89.6C165.1 96.2 164.8 105.5 156.8 108.2C148.7 110.9 132.8 107.1 127.4 112.9C122.1 118.7 127.2 134.1 121.8 137.5C116.5 140.9 100.6 132.3 94.2 136.4C87.7 140.5 90.8 157.2 89.1 169.7C87.3 182.1 80.8 190.2 71.9 189.6C63.1 189 51.9 179.7 43.2 175.1C34.4 170.5 28.2 170.7 21.4 176.1C14.6 181.5 7.3 192.1 0 202.8L0 0Z" fill="#cd5075"></path><path d="M135.2 0C135.2 5.6 135.2 11.3 132.3 16.1C129.3 20.8 123.4 24.8 122.8 30.3C122.3 35.8 127.2 42.9 126 47.8C124.8 52.7 117.5 55.3 113.8 59.7C110.1 64.1 109.9 70.3 104.5 72.1C99.1 74 88.5 71.4 85 75.3C81.4 79.1 84.8 89.4 81.2 91.7C77.7 94 67.1 88.2 62.8 90.9C58.5 93.7 60.5 104.8 59.4 113.1C58.2 121.4 53.8 126.8 47.9 126.4C42 126 34.6 119.8 28.8 116.8C23 113.7 18.8 113.8 14.3 117.4C9.7 121 4.9 128.1 0 135.2L0 0Z" fill="#f16269"></path><path d="M67.6 0C67.6 2.8 67.6 5.6 66.1 8C64.7 10.4 61.7 12.4 61.4 15.1C61.1 17.9 63.6 21.5 63 23.9C62.4 26.3 58.8 27.7 56.9 29.9C55 32.1 54.9 35.2 52.3 36.1C49.6 37 44.3 35.7 42.5 37.6C40.7 39.6 42.4 44.7 40.6 45.8C38.8 47 33.5 44.1 31.4 45.5C29.2 46.8 30.3 52.4 29.7 56.6C29.1 60.7 26.9 63.4 24 63.2C21 63 17.3 59.9 14.4 58.4C11.5 56.8 9.4 56.9 7.1 58.7C4.9 60.5 2.4 64 0 67.6L0 0Z" fill="#ff6f61"></path></g></svg>