<svg fill="none" height="32" viewBox="0 0 32 32" width="32" xmlns="http://www.w3.org/2000/svg"><path d="m12 8h2v2h2v2h2v2h2v2h2v2h2v4h-4v1h2v6h-6v-5h-2v2h-2v2h-4v-22h4z" fill="#000" fill-opacity=".25"/><path d="m18 21h2v6h-6v-5h-2v-2h2v-2h6v-2h2v4h-4zm-8-15h-2v18h2v2h-4v-22h4zm2 18h-2v-2h2zm8-8h-2v-2h2zm-2-2h-2v-2h2zm-2-2h-2v-2h2zm-2-2h-2v-2h2zm-2-2h-2v-2h2z" fill="#fff"/><g fill="#000"><path d="m8 6h2v18h-2z"/><path d="m10 8h2v14h-2z"/><path d="m12 10h2v10h-2z"/><path d="m14 12h2v8h-2z"/><path d="m16 14h2v4h-2z"/><path d="m18 16h2v2h-2z"/><path d="m14 18h2v4h-2z"/><path d="m16 22h2v3h-2z"/></g></svg>