<svg id="visual" viewBox="0 0 900 600" width="900" height="600" xmlns="http://www.w3.org/2000/svg" xmlns:xlink="http://www.w3.org/1999/xlink" version="1.1"><rect x="0" y="0" width="900" height="600" fill="#97ccff"></rect><path d="M0 380L129 366L257 417L386 431L514 368L643 354L771 442L900 394L900 601L771 601L643 601L514 601L386 601L257 601L129 601L0 601Z" fill="#715df2"></path><path d="M0 406L129 464L257 394L386 457L514 395L643 408L771 406L900 424L900 601L771 601L643 601L514 601L386 601L257 601L129 601L0 601Z" fill="#6c50f6"></path><path d="M0 479L129 504L257 445L386 511L514 478L643 458L771 456L900 459L900 601L771 601L643 601L514 601L386 601L257 601L129 601L0 601Z" fill="#6940fa"></path><path d="M0 492L129 494L257 531L386 485L514 501L643 536L771 509L900 525L900 601L771 601L643 601L514 601L386 601L257 601L129 601L0 601Z" fill="#672bfd"></path><path d="M0 559L129 564L257 556L386 571L514 564L643 543L771 541L900 542L900 601L771 601L643 601L514 601L386 601L257 601L129 601L0 601Z" fill="#6600ff"></path></svg>