<svg id="visual" viewBox="0 0 900 600" width="900" height="600" xmlns="http://www.w3.org/2000/svg" xmlns:xlink="http://www.w3.org/1999/xlink" version="1.1"><rect x="0" y="0" width="900" height="600" fill="#003a70"></rect><path d="M0 389L150 353L300 396L450 328L600 448L750 324L900 404L900 601L750 601L600 601L450 601L300 601L150 601L0 601Z" fill="#6600ff"></path><path d="M0 441L150 369L300 402L450 467L600 445L750 404L900 382L900 601L750 601L600 601L450 601L300 601L150 601L0 601Z" fill="#833cff"></path><path d="M0 534L150 509L300 519L450 522L600 517L750 460L900 482L900 601L750 601L600 601L450 601L300 601L150 601L0 601Z" fill="#9b5eff"></path><path d="M0 543L150 557L300 488L450 548L600 495L750 503L900 525L900 601L750 601L600 601L450 601L300 601L150 601L0 601Z" fill="#af7cff"></path><path d="M0 576L150 549L300 518L450 584L600 543L750 527L900 541L900 601L750 601L600 601L450 601L300 601L150 601L0 601Z" fill="#c299ff"></path></svg>